<?xml version="1.0" encoding="UTF-8" standalone="no"?>
<svg
   viewBox="0 0 58.449019 35.020001"
   width="58.44902"
   height="35.02"
   version="1.1"
   id="svg310"
   xmlns="http://www.w3.org/2000/svg"
   xmlns:svg="http://www.w3.org/2000/svg">
  <desc
     id="desc182">screen_protector.dxf - scale = 1.000000, origin = (0.000000, 0.000000), method = manual</desc>
  <defs
     id="defs196">
    <marker
       id="DistanceX"
       orient="auto"
       refX="0"
       refY="0"
       style="overflow:visible">
      <path
         d="M 3,-3 -3,3 M 0,-5 V 5"
         style="stroke:#000000;stroke-width:0.5"
         id="path184" />
    </marker>
    <pattern
       id="Hatch"
       patternUnits="userSpaceOnUse"
       width="8"
       height="8"
       x="0"
       y="0">
      <path
         d="M8 4 l-4,4"
         stroke="#000000"
         stroke-width="0.25"
         linecap="square"
         id="path187" />
      <path
         d="M6 2 l-4,4"
         stroke="#000000"
         stroke-width="0.25"
         linecap="square"
         id="path189" />
      <path
         d="M4 0 l-4,4"
         stroke="#000000"
         stroke-width="0.25"
         linecap="square"
         id="path191" />
    </pattern>
    <symbol
       id="*MODEL_SPACE" />
    <symbol
       id="*PAPER_SPACE" />
  </defs>
  <g
     id="g198"
     transform="translate(-145.0962,-131.74898)" />
  <g
     id="g200"
     transform="translate(-145.0962,-131.74898)" />
  <g
     id="g202"
     transform="translate(-145.0962,-131.74898)" />
  <g
     id="g204"
     transform="translate(-145.0962,-131.74898)" />
  <g
     id="g206"
     transform="translate(-145.0962,-131.74898)" />
  <g
     id="g208"
     transform="translate(-145.0962,-131.74898)" />
  <g
     id="g210"
     transform="translate(-145.0962,-131.74898)" />
  <g
     id="g212"
     transform="translate(-145.0962,-131.74898)" />
  <g
     id="g214"
     transform="translate(-145.0962,-131.74898)" />
  <g
     id="g216"
     transform="translate(-145.0962,-131.74898)" />
  <g
     id="g218"
     transform="translate(-145.0962,-131.74898)" />
  <g
     id="g220"
     transform="translate(-145.0962,-131.74898)" />
  <g
     id="g222"
     transform="translate(-145.0962,-131.74898)" />
  <g
     id="g224"
     transform="translate(-145.0962,-131.74898)" />
  <g
     id="g226"
     transform="translate(-145.0962,-131.74898)" />
  <g
     id="g228"
     transform="translate(-145.0962,-131.74898)" />
  <g
     id="g230"
     transform="translate(-145.0962,-131.74898)" />
  <g
     id="g232"
     transform="translate(-145.0962,-131.74898)" />
  <g
     id="g234"
     transform="translate(-145.0962,-131.74898)" />
  <g
     id="g236"
     transform="translate(-145.0962,-131.74898)" />
  <g
     id="g238"
     transform="translate(-145.0962,-131.74898)" />
  <g
     id="g240"
     transform="translate(-145.0962,-131.74898)" />
  <g
     id="g242"
     transform="translate(-145.0962,-131.74898)" />
  <g
     id="g244"
     transform="translate(-145.0962,-131.74898)" />
  <g
     id="g246"
     transform="translate(-145.0962,-131.74898)" />
  <g
     id="g248"
     transform="translate(-145.0962,-131.74898)" />
  <g
     id="g250"
     transform="translate(-145.0962,-131.74898)" />
  <g
     id="g252"
     transform="translate(-145.0962,-131.74898)" />
  <g
     id="g254"
     transform="translate(-145.0962,-131.74898)" />
  <g
     id="g256"
     transform="translate(-145.0962,-131.74898)" />
  <g
     id="g258"
     transform="translate(-145.0962,-131.74898)" />
  <g
     id="g260"
     transform="translate(-145.0962,-131.74898)" />
  <g
     id="g262"
     transform="translate(-145.0962,-131.74898)" />
  <g
     id="g264"
     transform="translate(-145.0962,-131.74898)" />
  <g
     id="g266"
     transform="translate(-145.0962,-131.74898)" />
  <g
     id="g268"
     transform="translate(-145.0962,-131.74898)" />
  <g
     id="g270"
     transform="translate(-145.0962,-131.74898)" />
  <g
     id="g272"
     transform="translate(-145.0962,-131.74898)" />
  <g
     id="g274"
     transform="translate(-145.0962,-131.74898)" />
  <g
     id="g292"
     transform="translate(-145.0962,-131.74898)">
    <path
       style="fill:none;stroke:#ff0000;stroke-opacity:1"
       d="m 197.04502,132.24898 h -45.4488"
       id="path276" />
    <path
       d="m 203.04502,138.2517 a 6,6 0 0 0 -6,-6"
       style="fill:none;stroke:#ff0000;stroke-opacity:1"
       id="path278" />
    <path
       style="fill:none;stroke:#ff0000;stroke-opacity:1"
       d="m 145.59622,138.24898 v 22.02"
       id="path280" />
    <path
       d="m 151.5962,132.2517 a 6,6 0 0 0 -6,6"
       style="fill:none;stroke:#ff0000;stroke-opacity:1"
       id="path282" />
    <path
       d="m 145.5962,160.26745 a 6,6 0 0 0 6,6"
       style="fill:none;stroke:#ff0000;stroke-opacity:1"
       id="path284" />
    <path
       style="fill:none;stroke:#ff0000;stroke-opacity:1"
       d="m 151.59622,166.26898 h 45.4488"
       id="path286" />
    <path
       d="m 197.04502,166.26745 a 6,6 0 0 0 6,-6"
       style="fill:none;stroke:#ff0000;stroke-opacity:1"
       id="path288" />
    <path
       style="fill:none;stroke:#ff0000;stroke-opacity:1"
       d="m 203.04522,160.26898 v -22.02"
       id="path290" />
  </g>
  <g
     id="g294"
     transform="translate(-145.0962,-131.74898)" />
  <g
     id="g296"
     transform="translate(-145.0962,-131.74898)" />
  <g
     id="g298"
     transform="translate(-145.0962,-131.74898)" />
  <g
     id="g300"
     transform="translate(-145.0962,-131.74898)" />
  <g
     id="g302"
     transform="translate(-145.0962,-131.74898)" />
  <g
     id="g304"
     transform="translate(-145.0962,-131.74898)" />
  <g
     id="g306"
     transform="translate(-145.0962,-131.74898)" />
  <g
     id="g308"
     transform="translate(-145.0962,-131.74898)" />
</svg>
