%TF.GenerationSoftware,KiCad,Pcbnew,8.0.2-1*%
%TF.CreationDate,2024-07-30T22:04:43-07:00*%
%TF.ProjectId,tamagotchi_panel_rounded,74616d61-676f-4746-9368-695f70616e65,rev?*%
%TF.SameCoordinates,Original*%
%TF.FileFunction,Copper,L1,Top*%
%TF.FilePolarity,Positive*%
%FSLAX46Y46*%
G04 Gerber Fmt 4.6, Leading zero omitted, Abs format (unit mm)*
G04 Created by KiCad (PCBNEW 8.0.2-1) date 2024-07-30 22:04:43*
%MOMM*%
%LPD*%
G01*
G04 APERTURE LIST*
G04 Aperture macros list*
%AMRotRect*
0 Rectangle, with rotation*
0 The origin of the aperture is its center*
0 $1 length*
0 $2 width*
0 $3 Rotation angle, in degrees counterclockwise*
0 Add horizontal line*
21,1,$1,$2,0,0,$3*%
G04 Aperture macros list end*
%TA.AperFunction,ComponentPad*%
%ADD10R,2.250000X2.250000*%
%TD*%
%TA.AperFunction,ComponentPad*%
%ADD11C,2.250000*%
%TD*%
%TA.AperFunction,ComponentPad*%
%ADD12R,1.700000X1.700000*%
%TD*%
%TA.AperFunction,ComponentPad*%
%ADD13C,1.300000*%
%TD*%
%TA.AperFunction,ComponentPad*%
%ADD14C,1.200000*%
%TD*%
%TA.AperFunction,ComponentPad*%
%ADD15C,1.500000*%
%TD*%
%TA.AperFunction,ComponentPad*%
%ADD16C,2.500000*%
%TD*%
%TA.AperFunction,ComponentPad*%
%ADD17RotRect,1.800000X1.800000X70.000000*%
%TD*%
%TA.AperFunction,ComponentPad*%
%ADD18C,1.800000*%
%TD*%
%TA.AperFunction,ComponentPad*%
%ADD19O,1.700000X1.700000*%
%TD*%
%TA.AperFunction,ViaPad*%
%ADD20C,0.800000*%
%TD*%
%TA.AperFunction,Conductor*%
%ADD21C,0.500000*%
%TD*%
%TA.AperFunction,Conductor*%
%ADD22C,1.000000*%
%TD*%
%TA.AperFunction,Profile*%
%ADD23C,0.100000*%
%TD*%
G04 APERTURE END LIST*
D10*
%TO.P,U1,1,~{RESET}/PB5*%
%TO.N,ISP RESET*%
X39620077Y-51983079D03*
D11*
%TO.P,U1,2,XTAL1/PB3*%
%TO.N,BUTTON*%
X37080077Y-51983079D03*
%TO.P,U1,3,XTAL2/PB4*%
%TO.N,LED*%
X34540077Y-51983079D03*
%TO.P,U1,4,GND*%
%TO.N,GND*%
X32000077Y-51983079D03*
%TO.P,U1,5,AREF/PB0*%
%TO.N,ISP MOSI*%
X32000077Y-59603079D03*
%TO.P,U1,6,PB1*%
%TO.N,ISP MISO*%
X34540077Y-59603079D03*
%TO.P,U1,7,PB2*%
%TO.N,ISP SCK*%
X37080077Y-59603079D03*
%TO.P,U1,8,VCC*%
%TO.N,VCC*%
X39620077Y-59603079D03*
%TD*%
D12*
%TO.P,J4,1,Pin_1*%
%TO.N,Net-(BT2-+)*%
X26800000Y-43343402D03*
%TD*%
D13*
%TO.P,SW2,1,1*%
%TO.N,GND*%
X43704199Y-51996982D03*
D14*
%TO.P,SW2,2,2*%
%TO.N,Net-(J3-Pin_1)*%
X40640021Y-49425832D03*
D13*
%TO.P,SW2,3*%
X42172110Y-50711407D03*
D15*
%TO.P,SW2,MH1*%
%TO.N,N/C*%
X45236288Y-53282557D03*
%TO.P,SW2,MH2*%
X39107932Y-48140256D03*
%TD*%
D16*
%TO.P,SW1,1,1*%
%TO.N,GND*%
X38968713Y-70923675D03*
X32468713Y-70923675D03*
%TO.P,SW1,2,2*%
%TO.N,BUTTON*%
X38968713Y-66423675D03*
X32468713Y-66423675D03*
%TD*%
D11*
%TO.P,U2,1,Gnd*%
%TO.N,GND*%
X39625000Y-63400000D03*
%TO.P,U2,2,VCC*%
%TO.N,VCC*%
X37085000Y-63400000D03*
%TO.P,U2,3,SCL*%
%TO.N,ISP SCK*%
X34545000Y-63400000D03*
%TO.P,U2,4,SDA*%
%TO.N,ISP MOSI*%
X32005000Y-63400000D03*
%TD*%
D12*
%TO.P,J3,1,Pin_1*%
%TO.N,Net-(J3-Pin_1)*%
X28993960Y-51683079D03*
%TD*%
%TO.P,J5,1,Pin_1*%
%TO.N,Net-(BT2--)*%
X26800000Y-24943402D03*
%TD*%
%TO.P,J2,1,Pin_1*%
%TO.N,VCC*%
X28993960Y-70083079D03*
%TD*%
D17*
%TO.P,D1,1,K*%
%TO.N,GND*%
X42142843Y-69816333D03*
D18*
%TO.P,D1,2,A*%
%TO.N,LED*%
X43011574Y-67429514D03*
%TD*%
D12*
%TO.P,J1,1,Pin_1*%
%TO.N,ISP RESET*%
X28505077Y-54163079D03*
D19*
%TO.P,J1,2,Pin_2*%
%TO.N,ISP SCK*%
X28505077Y-56703079D03*
%TO.P,J1,3,Pin_3*%
%TO.N,ISP MISO*%
X28505077Y-59243079D03*
%TO.P,J1,4,Pin_4*%
%TO.N,ISP MOSI*%
X28505077Y-61783079D03*
%TO.P,J1,5,Pin_5*%
%TO.N,VCC*%
X28505077Y-64323079D03*
%TO.P,J1,6,Pin_6*%
%TO.N,GND*%
X28505077Y-66863079D03*
%TD*%
D20*
%TO.N,ISP RESET*%
X37000034Y-57432193D03*
%TO.N,Net-(BT2-+)*%
X33978370Y-22543402D03*
%TO.N,LED*%
X35647360Y-55468176D03*
%TD*%
D21*
%TO.N,LED*%
X43011574Y-61080158D02*
G75*
G03*
X39659497Y-57728076I-3352084J-2D01*
G01*
X36154861Y-55468176D02*
G75*
G02*
X37021241Y-55827012I39J-1225224D01*
G01*
X38400942Y-57206755D02*
G75*
G03*
X39659497Y-57728068I1258558J1258555D01*
G01*
X37021220Y-55827033D02*
X38400942Y-57206755D01*
X35647360Y-55468176D02*
X36154861Y-55468176D01*
X43011574Y-61080158D02*
X43011574Y-67429514D01*
%TO.N,ISP SCK*%
X35427028Y-57827028D02*
G75*
G03*
X32713575Y-56703102I-2713428J-2713472D01*
G01*
X32713575Y-56703079D02*
X28505077Y-56703079D01*
X35427028Y-57827028D02*
X37080077Y-59480077D01*
X37080077Y-59480077D02*
X37080077Y-59603079D01*
%TO.N,ISP MISO*%
X33845038Y-58423117D02*
G75*
G03*
X32167067Y-57728106I-1677938J-1677983D01*
G01*
X32167067Y-57728079D02*
X31091343Y-57728079D01*
X33845038Y-58423117D02*
X34540077Y-59118156D01*
X34540077Y-59118156D02*
X34540077Y-59603079D01*
X29262577Y-58485579D02*
X29366450Y-58384189D01*
X30100736Y-57922811D02*
X30374732Y-57826939D01*
X30657740Y-57762348D02*
X30946200Y-57729850D01*
X29366450Y-58384189D02*
X29593404Y-58203200D01*
X29839197Y-58048760D02*
X30100736Y-57922811D01*
X30374732Y-57826939D02*
X30657740Y-57762348D01*
X29593404Y-58203200D02*
X29839197Y-58048760D01*
X28505077Y-59243079D02*
X29262577Y-58485579D01*
X30946200Y-57729850D02*
X31091343Y-57728079D01*
%TO.N,Net-(J3-Pin_1)*%
X40763278Y-49425832D02*
G75*
G03*
X40552877Y-49512999I22J-297568D01*
G01*
X31525734Y-50200000D02*
G75*
G03*
X29735477Y-50941517I-34J-2531800D01*
G01*
X40973690Y-49512987D02*
G75*
G03*
X40763278Y-49425847I-210390J-210413D01*
G01*
X40252937Y-49812916D02*
G75*
G02*
X39318433Y-50200020I-934537J934516D01*
G01*
D22*
%TO.N,Net-(BT2-+)*%
X34007586Y-31800426D02*
G75*
G02*
X30972696Y-39127309I-10361776J-4D01*
G01*
X26815344Y-43284655D02*
G75*
G03*
X26800003Y-43321701I37056J-37045D01*
G01*
X33992978Y-22558010D02*
G75*
G02*
X34007599Y-22593276I-35278J-35290D01*
G01*
D21*
%TO.N,VCC*%
X37898328Y-61436478D02*
G75*
G03*
X37085025Y-63400000I1963572J-1963522D01*
G01*
%TO.N,ISP MOSI*%
X31955077Y-63314776D02*
G75*
G03*
X31980026Y-63375050I85223J-24D01*
G01*
X28656463Y-61743536D02*
G75*
G02*
X28560999Y-61783086I-95463J95436D01*
G01*
X32000077Y-59603079D02*
G75*
G03*
X29946109Y-60453912I123J-2904921D01*
G01*
%TO.N,ISP SCK*%
X35358261Y-61436545D02*
G75*
G03*
X34545037Y-63400000I1963439J-1963355D01*
G01*
%TO.N,ISP RESET*%
X29275077Y-54933079D02*
G75*
G03*
X31134021Y-55703054I1858923J1858979D01*
G01*
X37000034Y-57432193D02*
G75*
G03*
X32825608Y-55703078I-4174434J-4174407D01*
G01*
X29275077Y-54933079D02*
X28505077Y-54163079D01*
X31134021Y-55703079D02*
X32825608Y-55703079D01*
%TO.N,ISP SCK*%
X35358261Y-61436545D02*
X37080077Y-59714730D01*
%TO.N,ISP MOSI*%
X28656463Y-61743536D02*
X29946098Y-60453901D01*
X31980038Y-63375038D02*
X32005000Y-63400000D01*
X28560999Y-61783079D02*
X28505077Y-61783079D01*
X31955077Y-63314776D02*
X31955077Y-59648079D01*
%TO.N,VCC*%
X37898328Y-61436478D02*
X39620077Y-59714730D01*
D22*
%TO.N,Net-(BT2-+)*%
X34007586Y-31800426D02*
X34007586Y-22593276D01*
X33992978Y-22558010D02*
X33978370Y-22543402D01*
X26800000Y-43321701D02*
X26800000Y-43343402D01*
X30972693Y-39127306D02*
X26815344Y-43284655D01*
D21*
%TO.N,Net-(J3-Pin_1)*%
X40973690Y-49512987D02*
X42172110Y-50711407D01*
X40552865Y-49512987D02*
X40252937Y-49812916D01*
X29735499Y-50941539D02*
X28993960Y-51683079D01*
X31525734Y-50200000D02*
X39318433Y-50200000D01*
%TD*%
%TA.AperFunction,Conductor*%
%TO.N,GND*%
G36*
X40271684Y-47177689D02*
G01*
X40274046Y-47179625D01*
X45967198Y-51961488D01*
X46006496Y-52020617D01*
X46007588Y-52091605D01*
X45970127Y-52151914D01*
X45906007Y-52182397D01*
X45835586Y-52173375D01*
X45832911Y-52172165D01*
X45668371Y-52095440D01*
X45668367Y-52095438D01*
X45668364Y-52095437D01*
X45668362Y-52095436D01*
X45668361Y-52095436D01*
X45578466Y-52071348D01*
X45455659Y-52038442D01*
X45236288Y-52019250D01*
X45016917Y-52038442D01*
X44804214Y-52095436D01*
X44804208Y-52095438D01*
X44604634Y-52188501D01*
X44424253Y-52314805D01*
X44424247Y-52314810D01*
X44268541Y-52470516D01*
X44268536Y-52470522D01*
X44142232Y-52650903D01*
X44049169Y-52850477D01*
X44049167Y-52850483D01*
X43992173Y-53063186D01*
X43972981Y-53282557D01*
X43992173Y-53501927D01*
X44049167Y-53714630D01*
X44049169Y-53714636D01*
X44091729Y-53805907D01*
X44142232Y-53914211D01*
X44148035Y-53922498D01*
X44268539Y-54094595D01*
X44268542Y-54094599D01*
X44424245Y-54250302D01*
X44424249Y-54250305D01*
X44424250Y-54250306D01*
X44604634Y-54376613D01*
X44804212Y-54469677D01*
X45016917Y-54526672D01*
X45236288Y-54545864D01*
X45455659Y-54526672D01*
X45668364Y-54469677D01*
X45867942Y-54376613D01*
X46048326Y-54250306D01*
X46204037Y-54094595D01*
X46330344Y-53914211D01*
X46402093Y-53760342D01*
X46449008Y-53707059D01*
X46517285Y-53687597D01*
X46532079Y-53688587D01*
X46811155Y-53723842D01*
X46826695Y-53726806D01*
X46957316Y-53760344D01*
X47115731Y-53801018D01*
X47130779Y-53805907D01*
X47308123Y-53876122D01*
X47408252Y-53915766D01*
X47422560Y-53922498D01*
X47684086Y-54066272D01*
X47697434Y-54074744D01*
X47724762Y-54094599D01*
X47938864Y-54250154D01*
X47951056Y-54260240D01*
X48168597Y-54464523D01*
X48179428Y-54476057D01*
X48356147Y-54689674D01*
X48369652Y-54705998D01*
X48378950Y-54718796D01*
X48512425Y-54929119D01*
X48538853Y-54970762D01*
X48546476Y-54984628D01*
X48673537Y-55254647D01*
X48679362Y-55269359D01*
X48771579Y-55553176D01*
X48775514Y-55568502D01*
X48831433Y-55861638D01*
X48833416Y-55877336D01*
X48852155Y-56175168D01*
X48852155Y-56190992D01*
X48833416Y-56488823D01*
X48831433Y-56504521D01*
X48775514Y-56797657D01*
X48771579Y-56812983D01*
X48679362Y-57096800D01*
X48673537Y-57111512D01*
X48546476Y-57381531D01*
X48538853Y-57395397D01*
X48378952Y-57647360D01*
X48369652Y-57660161D01*
X48179429Y-57890101D01*
X48168597Y-57901636D01*
X47951056Y-58105919D01*
X47938864Y-58116005D01*
X47697440Y-58291411D01*
X47684080Y-58299890D01*
X47422568Y-58443657D01*
X47408250Y-58450394D01*
X47130779Y-58560252D01*
X47115731Y-58565141D01*
X46826698Y-58639352D01*
X46811155Y-58642317D01*
X46514134Y-58679839D01*
X46500239Y-58680818D01*
X46350077Y-58683079D01*
X46350060Y-58683079D01*
X46350018Y-58683080D01*
X46227819Y-58685742D01*
X45987045Y-58728201D01*
X45987042Y-58728202D01*
X45757288Y-58811827D01*
X45757283Y-58811830D01*
X45545541Y-58934080D01*
X45545540Y-58934081D01*
X45358251Y-59091236D01*
X45358245Y-59091241D01*
X45201083Y-59278538D01*
X45078830Y-59490284D01*
X44995200Y-59720048D01*
X44952742Y-59960818D01*
X44952742Y-59960823D01*
X44950077Y-60083075D01*
X44950077Y-60783085D01*
X44952782Y-60905326D01*
X44980589Y-61063039D01*
X44995236Y-61146113D01*
X45078856Y-61375867D01*
X45078858Y-61375870D01*
X45078859Y-61375873D01*
X45201097Y-61587605D01*
X45201098Y-61587606D01*
X45201101Y-61587611D01*
X45275534Y-61676319D01*
X45358259Y-61774910D01*
X45418271Y-61825268D01*
X45545553Y-61932073D01*
X45630183Y-61980936D01*
X45757288Y-62054324D01*
X45757291Y-62054325D01*
X45757293Y-62054326D01*
X45987045Y-62137953D01*
X46227828Y-62180413D01*
X46350077Y-62183079D01*
X46500254Y-62185341D01*
X46514133Y-62186320D01*
X46811155Y-62223842D01*
X46826695Y-62226806D01*
X47105511Y-62298394D01*
X47115731Y-62301018D01*
X47130779Y-62305907D01*
X47251304Y-62353626D01*
X47408252Y-62415766D01*
X47422560Y-62422498D01*
X47684086Y-62566272D01*
X47697434Y-62574744D01*
X47809430Y-62656114D01*
X47938864Y-62750154D01*
X47951056Y-62760240D01*
X48168597Y-62964523D01*
X48179428Y-62976057D01*
X48334819Y-63163893D01*
X48369652Y-63205998D01*
X48378950Y-63218796D01*
X48538853Y-63470762D01*
X48546476Y-63484628D01*
X48673537Y-63754647D01*
X48679362Y-63769359D01*
X48771579Y-64053176D01*
X48775514Y-64068502D01*
X48831433Y-64361638D01*
X48833416Y-64377336D01*
X48852155Y-64675168D01*
X48852155Y-64690992D01*
X48833416Y-64988823D01*
X48831433Y-65004521D01*
X48775514Y-65297657D01*
X48771579Y-65312983D01*
X48679362Y-65596800D01*
X48673537Y-65611512D01*
X48546476Y-65881531D01*
X48538853Y-65895397D01*
X48378952Y-66147360D01*
X48369652Y-66160161D01*
X48179429Y-66390101D01*
X48168597Y-66401636D01*
X47951056Y-66605919D01*
X47938864Y-66616005D01*
X47697440Y-66791411D01*
X47684080Y-66799890D01*
X47422568Y-66943657D01*
X47408250Y-66950394D01*
X47130779Y-67060252D01*
X47115731Y-67065141D01*
X46826698Y-67139352D01*
X46811155Y-67142317D01*
X46514134Y-67179839D01*
X46500239Y-67180818D01*
X46350077Y-67183079D01*
X46350060Y-67183079D01*
X46350018Y-67183080D01*
X46227819Y-67185742D01*
X45987045Y-67228201D01*
X45987042Y-67228202D01*
X45757288Y-67311827D01*
X45757283Y-67311830D01*
X45545541Y-67434080D01*
X45545540Y-67434081D01*
X45358251Y-67591236D01*
X45358245Y-67591241D01*
X45201083Y-67778538D01*
X45078830Y-67990284D01*
X44995200Y-68220048D01*
X44952742Y-68460818D01*
X44952742Y-68460823D01*
X44950077Y-68583067D01*
X44957262Y-69583628D01*
X44957252Y-69586350D01*
X44955102Y-69735412D01*
X44954196Y-69748782D01*
X44918046Y-70046523D01*
X44915304Y-70061489D01*
X44843742Y-70351831D01*
X44839215Y-70366358D01*
X44733183Y-70645945D01*
X44726939Y-70659820D01*
X44587972Y-70924600D01*
X44580100Y-70937621D01*
X44410237Y-71183710D01*
X44400853Y-71195688D01*
X44202563Y-71419510D01*
X44191804Y-71430268D01*
X43967978Y-71628560D01*
X43956001Y-71637944D01*
X43709913Y-71807804D01*
X43696892Y-71815676D01*
X43432108Y-71954644D01*
X43418232Y-71960888D01*
X43138649Y-72066917D01*
X43124123Y-72071444D01*
X42833778Y-72143006D01*
X42818812Y-72145748D01*
X42611855Y-72170875D01*
X42521068Y-72181898D01*
X42507707Y-72182804D01*
X42358060Y-72184971D01*
X42356488Y-72184984D01*
X37836226Y-72194039D01*
X37733909Y-72196377D01*
X37733904Y-72196378D01*
X37533160Y-72236320D01*
X37533158Y-72236321D01*
X37533153Y-72236322D01*
X37344066Y-72314666D01*
X37259499Y-72371190D01*
X37191749Y-72392414D01*
X37123280Y-72373640D01*
X37075829Y-72320829D01*
X37067776Y-72299044D01*
X37063125Y-72281685D01*
X37006183Y-72183059D01*
X36996708Y-72166648D01*
X36996700Y-72166638D01*
X36902782Y-72072720D01*
X36902772Y-72072712D01*
X36787736Y-72006296D01*
X36659425Y-71971915D01*
X36526587Y-71971915D01*
X36441046Y-71994835D01*
X36398275Y-72006296D01*
X36281006Y-72074002D01*
X36212011Y-72090740D01*
X36155006Y-72074002D01*
X36037736Y-72006296D01*
X35909425Y-71971915D01*
X35776587Y-71971915D01*
X35691046Y-71994835D01*
X35648275Y-72006296D01*
X35531006Y-72074002D01*
X35462011Y-72090740D01*
X35405006Y-72074002D01*
X35287736Y-72006296D01*
X35159425Y-71971915D01*
X35026587Y-71971915D01*
X34941046Y-71994835D01*
X34898275Y-72006296D01*
X34783239Y-72072712D01*
X34783229Y-72072720D01*
X34689311Y-72166638D01*
X34689303Y-72166648D01*
X34622886Y-72281686D01*
X34619277Y-72295156D01*
X34582324Y-72355778D01*
X34518463Y-72386798D01*
X34447968Y-72378368D01*
X34427627Y-72367346D01*
X34410294Y-72355778D01*
X34333759Y-72304700D01*
X34168406Y-72236322D01*
X34144616Y-72226484D01*
X34144611Y-72226483D01*
X33943842Y-72186678D01*
X33943846Y-72186678D01*
X33841503Y-72184407D01*
X29051186Y-72183079D01*
X29048973Y-72183059D01*
X28915097Y-72180670D01*
X28899412Y-72179407D01*
X28633333Y-72141147D01*
X28615766Y-72137326D01*
X28358906Y-72061902D01*
X28342063Y-72055619D01*
X28098566Y-71944415D01*
X28082787Y-71935799D01*
X27857590Y-71791069D01*
X27843199Y-71780296D01*
X27640887Y-71604988D01*
X27628179Y-71592280D01*
X27452874Y-71389963D01*
X27442107Y-71375580D01*
X27326500Y-71195688D01*
X27297375Y-71150366D01*
X27288762Y-71134591D01*
X27246607Y-71042283D01*
X27177563Y-70891092D01*
X27171281Y-70874251D01*
X27104247Y-70645945D01*
X27095863Y-70617389D01*
X27092043Y-70599826D01*
X27057453Y-70359230D01*
X27053784Y-70333711D01*
X27052524Y-70318071D01*
X27050098Y-70184237D01*
X27050077Y-70181953D01*
X27050077Y-69184429D01*
X27635460Y-69184429D01*
X27635460Y-70981728D01*
X27641969Y-71042275D01*
X27641971Y-71042283D01*
X27693070Y-71179281D01*
X27693072Y-71179286D01*
X27780698Y-71296340D01*
X27897752Y-71383966D01*
X27897754Y-71383967D01*
X27897756Y-71383968D01*
X27956835Y-71406003D01*
X28034755Y-71435067D01*
X28034763Y-71435069D01*
X28095310Y-71441578D01*
X28095315Y-71441578D01*
X28095322Y-71441579D01*
X28095328Y-71441579D01*
X29892592Y-71441579D01*
X29892598Y-71441579D01*
X29892605Y-71441578D01*
X29892609Y-71441578D01*
X29953156Y-71435069D01*
X29953159Y-71435068D01*
X29953161Y-71435068D01*
X30090164Y-71383968D01*
X30207221Y-71296340D01*
X30294847Y-71179286D01*
X30294847Y-71179285D01*
X30294849Y-71179283D01*
X30345949Y-71042280D01*
X30352460Y-70981717D01*
X30352460Y-69184441D01*
X30352459Y-69184429D01*
X30345950Y-69123882D01*
X30345948Y-69123874D01*
X30294849Y-68986876D01*
X30294847Y-68986871D01*
X30207221Y-68869817D01*
X30090167Y-68782191D01*
X30090162Y-68782189D01*
X29953164Y-68731090D01*
X29953156Y-68731088D01*
X29892609Y-68724579D01*
X29892598Y-68724579D01*
X28095322Y-68724579D01*
X28095310Y-68724579D01*
X28034763Y-68731088D01*
X28034755Y-68731090D01*
X27897757Y-68782189D01*
X27897752Y-68782191D01*
X27780698Y-68869817D01*
X27693072Y-68986871D01*
X27693070Y-68986876D01*
X27641971Y-69123874D01*
X27641969Y-69123882D01*
X27635460Y-69184429D01*
X27050077Y-69184429D01*
X27050077Y-64988850D01*
X27070079Y-64920729D01*
X27123735Y-64874236D01*
X27194009Y-64864132D01*
X27258589Y-64893626D01*
X27291463Y-64938234D01*
X27292918Y-64941550D01*
X27306218Y-64971872D01*
X27429352Y-65160344D01*
X27429356Y-65160349D01*
X27581839Y-65325987D01*
X27636408Y-65368460D01*
X27759501Y-65464268D01*
X27957503Y-65571421D01*
X27957504Y-65571421D01*
X27957505Y-65571422D01*
X28069304Y-65609802D01*
X28170442Y-65644523D01*
X28392508Y-65681579D01*
X28392512Y-65681579D01*
X28617642Y-65681579D01*
X28617646Y-65681579D01*
X28839712Y-65644523D01*
X29052651Y-65571421D01*
X29250653Y-65464268D01*
X29428317Y-65325985D01*
X29580799Y-65160347D01*
X29703937Y-64971870D01*
X29794373Y-64765695D01*
X29849641Y-64547447D01*
X29868233Y-64323079D01*
X29849641Y-64098711D01*
X29800926Y-63906340D01*
X29794374Y-63880466D01*
X29794373Y-63880465D01*
X29794373Y-63880463D01*
X29703937Y-63674288D01*
X29688020Y-63649925D01*
X29580801Y-63485813D01*
X29580797Y-63485808D01*
X29428314Y-63320170D01*
X29298069Y-63218796D01*
X29250653Y-63181890D01*
X29217396Y-63163892D01*
X29167006Y-63113881D01*
X29151653Y-63044564D01*
X29176213Y-62977951D01*
X29217397Y-62942265D01*
X29250653Y-62924268D01*
X29428317Y-62785985D01*
X29580799Y-62620347D01*
X29703937Y-62431870D01*
X29794373Y-62225695D01*
X29849641Y-62007447D01*
X29868233Y-61783079D01*
X29859386Y-61676318D01*
X29873695Y-61606779D01*
X29895861Y-61576819D01*
X30479935Y-60992745D01*
X30485035Y-60987921D01*
X30656641Y-60834564D01*
X30667678Y-60825764D01*
X30723477Y-60786171D01*
X30790607Y-60763063D01*
X30859574Y-60779917D01*
X30878221Y-60793119D01*
X30991839Y-60890158D01*
X31036961Y-60928695D01*
X31136413Y-60989639D01*
X31184043Y-61042286D01*
X31196577Y-61097071D01*
X31196577Y-61909024D01*
X31176575Y-61977145D01*
X31136412Y-62016456D01*
X31041891Y-62074378D01*
X31041880Y-62074386D01*
X30846368Y-62241368D01*
X30679386Y-62436880D01*
X30679385Y-62436882D01*
X30545039Y-62656114D01*
X30446644Y-62893661D01*
X30386622Y-63143674D01*
X30366449Y-63400000D01*
X30386622Y-63656325D01*
X30446644Y-63906338D01*
X30526328Y-64098711D01*
X30545040Y-64143887D01*
X30678478Y-64361638D01*
X30679385Y-64363117D01*
X30679386Y-64363119D01*
X30846368Y-64558631D01*
X31017112Y-64704459D01*
X31041884Y-64725616D01*
X31261113Y-64859960D01*
X31292242Y-64872854D01*
X31347521Y-64917402D01*
X31369942Y-64984765D01*
X31352384Y-65053556D01*
X31329724Y-65081626D01*
X31176031Y-65224232D01*
X31011695Y-65430302D01*
X30879918Y-65658546D01*
X30879915Y-65658554D01*
X30783624Y-65903899D01*
X30728057Y-66147360D01*
X30724978Y-66160849D01*
X30705282Y-66423675D01*
X30724978Y-66686501D01*
X30724979Y-66686505D01*
X30783624Y-66943450D01*
X30879915Y-67188795D01*
X30879918Y-67188803D01*
X31011695Y-67417047D01*
X31011697Y-67417050D01*
X31011698Y-67417051D01*
X31176027Y-67623113D01*
X31369232Y-67802381D01*
X31369238Y-67802385D01*
X31586988Y-67950845D01*
X31586992Y-67950847D01*
X31586998Y-67950851D01*
X31824459Y-68065207D01*
X31824462Y-68065207D01*
X31824467Y-68065210D01*
X32076302Y-68142890D01*
X32076304Y-68142890D01*
X32076313Y-68142893D01*
X32336932Y-68182175D01*
X32336936Y-68182175D01*
X32600490Y-68182175D01*
X32600494Y-68182175D01*
X32861113Y-68142893D01*
X32993096Y-68102182D01*
X33112958Y-68065210D01*
X33112960Y-68065209D01*
X33112967Y-68065207D01*
X33350429Y-67950851D01*
X33568194Y-67802381D01*
X33761399Y-67623113D01*
X33925728Y-67417051D01*
X34034760Y-67228202D01*
X34057507Y-67188803D01*
X34057509Y-67188799D01*
X34153800Y-66943455D01*
X34212448Y-66686501D01*
X34232144Y-66423675D01*
X34212448Y-66160849D01*
X34153800Y-65903895D01*
X34057509Y-65658551D01*
X34057508Y-65658550D01*
X34057507Y-65658546D01*
X33925730Y-65430302D01*
X33895979Y-65392995D01*
X33761399Y-65224237D01*
X33568194Y-65044969D01*
X33552672Y-65034386D01*
X33350438Y-64896504D01*
X33350431Y-64896500D01*
X33344463Y-64893626D01*
X33152114Y-64800995D01*
X33099419Y-64753418D01*
X33080811Y-64684903D01*
X33102199Y-64617205D01*
X33124954Y-64591663D01*
X33163631Y-64558631D01*
X33179188Y-64540415D01*
X33238638Y-64501606D01*
X33309632Y-64501098D01*
X33369632Y-64539053D01*
X33370812Y-64540416D01*
X33386369Y-64558632D01*
X33557112Y-64704459D01*
X33581884Y-64725616D01*
X33801113Y-64859960D01*
X34038660Y-64958355D01*
X34288674Y-65018378D01*
X34545000Y-65038551D01*
X34801326Y-65018378D01*
X35051340Y-64958355D01*
X35288887Y-64859960D01*
X35508116Y-64725616D01*
X35703631Y-64558631D01*
X35719188Y-64540415D01*
X35778638Y-64501606D01*
X35849632Y-64501098D01*
X35909632Y-64539053D01*
X35910812Y-64540416D01*
X35926369Y-64558632D01*
X36097112Y-64704459D01*
X36121884Y-64725616D01*
X36341113Y-64859960D01*
X36578660Y-64958355D01*
X36828674Y-65018378D01*
X37085000Y-65038551D01*
X37341326Y-65018378D01*
X37591340Y-64958355D01*
X37613587Y-64949139D01*
X37684175Y-64941550D01*
X37747663Y-64973328D01*
X37783891Y-65034386D01*
X37781358Y-65105337D01*
X37747507Y-65157912D01*
X37676031Y-65224232D01*
X37511695Y-65430302D01*
X37379918Y-65658546D01*
X37379915Y-65658554D01*
X37283624Y-65903899D01*
X37228057Y-66147360D01*
X37224978Y-66160849D01*
X37205282Y-66423675D01*
X37224978Y-66686501D01*
X37224979Y-66686505D01*
X37283624Y-66943450D01*
X37379915Y-67188795D01*
X37379918Y-67188803D01*
X37511695Y-67417047D01*
X37511697Y-67417050D01*
X37511698Y-67417051D01*
X37676027Y-67623113D01*
X37869232Y-67802381D01*
X37869238Y-67802385D01*
X38086988Y-67950845D01*
X38086992Y-67950847D01*
X38086998Y-67950851D01*
X38324459Y-68065207D01*
X38324462Y-68065207D01*
X38324467Y-68065210D01*
X38576302Y-68142890D01*
X38576304Y-68142890D01*
X38576313Y-68142893D01*
X38836932Y-68182175D01*
X38836936Y-68182175D01*
X39100490Y-68182175D01*
X39100494Y-68182175D01*
X39361113Y-68142893D01*
X39493096Y-68102182D01*
X39612958Y-68065210D01*
X39612960Y-68065209D01*
X39612967Y-68065207D01*
X39850429Y-67950851D01*
X40068194Y-67802381D01*
X40261399Y-67623113D01*
X40425728Y-67417051D01*
X40534760Y-67228202D01*
X40557507Y-67188803D01*
X40557509Y-67188799D01*
X40653800Y-66943455D01*
X40712448Y-66686501D01*
X40732144Y-66423675D01*
X40712448Y-66160849D01*
X40653800Y-65903895D01*
X40557509Y-65658551D01*
X40557508Y-65658550D01*
X40557507Y-65658546D01*
X40425730Y-65430302D01*
X40395979Y-65392995D01*
X40261399Y-65224237D01*
X40068194Y-65044969D01*
X40052672Y-65034386D01*
X39850438Y-64896504D01*
X39850431Y-64896500D01*
X39612970Y-64782144D01*
X39612958Y-64782139D01*
X39361123Y-64704459D01*
X39361115Y-64704457D01*
X39361113Y-64704457D01*
X39100494Y-64665175D01*
X38836932Y-64665175D01*
X38576313Y-64704457D01*
X38576311Y-64704457D01*
X38576302Y-64704459D01*
X38369853Y-64768140D01*
X38298863Y-64769106D01*
X38238620Y-64731537D01*
X38208252Y-64667364D01*
X38217399Y-64596959D01*
X38240818Y-64562739D01*
X38240416Y-64562396D01*
X38243625Y-64558638D01*
X38243628Y-64558632D01*
X38243631Y-64558631D01*
X38410616Y-64363116D01*
X38544960Y-64143887D01*
X38643355Y-63906340D01*
X38703378Y-63656326D01*
X38723551Y-63400000D01*
X38703378Y-63143674D01*
X38643355Y-62893660D01*
X38544960Y-62656113D01*
X38410616Y-62436884D01*
X38406335Y-62431872D01*
X38291186Y-62297049D01*
X38262155Y-62232260D01*
X38272760Y-62162060D01*
X38293042Y-62131265D01*
X38432018Y-61975746D01*
X38436841Y-61970644D01*
X39170543Y-61236943D01*
X39232853Y-61202920D01*
X39289051Y-61203523D01*
X39363741Y-61221455D01*
X39363744Y-61221455D01*
X39363751Y-61221457D01*
X39620077Y-61241630D01*
X39876403Y-61221457D01*
X40126417Y-61161434D01*
X40363964Y-61063039D01*
X40583193Y-60928695D01*
X40778708Y-60761710D01*
X40945693Y-60566195D01*
X41080037Y-60346966D01*
X41178432Y-60109419D01*
X41238455Y-59859405D01*
X41258628Y-59603079D01*
X41238455Y-59346753D01*
X41232180Y-59320615D01*
X41235728Y-59249709D01*
X41277048Y-59191976D01*
X41343021Y-59165746D01*
X41412703Y-59179349D01*
X41438655Y-59197250D01*
X41488202Y-59241528D01*
X41498182Y-59251509D01*
X41574777Y-59337219D01*
X41682554Y-59457823D01*
X41691364Y-59468869D01*
X41851489Y-59694543D01*
X41859006Y-59706507D01*
X41992848Y-59948676D01*
X41998979Y-59961407D01*
X42104867Y-60217042D01*
X42109534Y-60230379D01*
X42186134Y-60496265D01*
X42189278Y-60510040D01*
X42235627Y-60782830D01*
X42237209Y-60796871D01*
X42252876Y-61075835D01*
X42253074Y-61082900D01*
X42253074Y-66173426D01*
X42233072Y-66241547D01*
X42204465Y-66272857D01*
X42054359Y-66389690D01*
X42054348Y-66389700D01*
X41896259Y-66561430D01*
X41768589Y-66756845D01*
X41674826Y-66970603D01*
X41674823Y-66970610D01*
X41617524Y-67196880D01*
X41617523Y-67196886D01*
X41617523Y-67196888D01*
X41607999Y-67311827D01*
X41598247Y-67429514D01*
X41617524Y-67662147D01*
X41674823Y-67888417D01*
X41674826Y-67888424D01*
X41768589Y-68102182D01*
X41896259Y-68297597D01*
X42054348Y-68469327D01*
X42054352Y-68469331D01*
X42120224Y-68520601D01*
X42238557Y-68612704D01*
X42443847Y-68723801D01*
X42664623Y-68799594D01*
X42894862Y-68838014D01*
X42894866Y-68838014D01*
X43128282Y-68838014D01*
X43128286Y-68838014D01*
X43358525Y-68799594D01*
X43579301Y-68723801D01*
X43784591Y-68612704D01*
X43968794Y-68469332D01*
X43976628Y-68460823D01*
X44126888Y-68297597D01*
X44177553Y-68220048D01*
X44254558Y-68102183D01*
X44348323Y-67888421D01*
X44405625Y-67662140D01*
X44424901Y-67429514D01*
X44405625Y-67196888D01*
X44348323Y-66970607D01*
X44254558Y-66756845D01*
X44162543Y-66616005D01*
X44126888Y-66561430D01*
X43968799Y-66389700D01*
X43968788Y-66389690D01*
X43818683Y-66272857D01*
X43777212Y-66215232D01*
X43770074Y-66173426D01*
X43770074Y-64576478D01*
X44922536Y-64576478D01*
X44922536Y-64789680D01*
X44947793Y-64949140D01*
X44955890Y-65000262D01*
X45007904Y-65160347D01*
X45021772Y-65203026D01*
X45118564Y-65392992D01*
X45118566Y-65392995D01*
X45243883Y-65565478D01*
X45394636Y-65716231D01*
X45394639Y-65716233D01*
X45567123Y-65841551D01*
X45757089Y-65938343D01*
X45959857Y-66004226D01*
X46170435Y-66037579D01*
X46170438Y-66037579D01*
X46383634Y-66037579D01*
X46383637Y-66037579D01*
X46594215Y-66004226D01*
X46796983Y-65938343D01*
X46986949Y-65841551D01*
X47159433Y-65716233D01*
X47310190Y-65565476D01*
X47435508Y-65392992D01*
X47532300Y-65203026D01*
X47598183Y-65000258D01*
X47631536Y-64789680D01*
X47631536Y-64576478D01*
X47598183Y-64365900D01*
X47532300Y-64163132D01*
X47435508Y-63973166D01*
X47310190Y-63800682D01*
X47310188Y-63800679D01*
X47159435Y-63649926D01*
X46986952Y-63524609D01*
X46986951Y-63524608D01*
X46986949Y-63524607D01*
X46796983Y-63427815D01*
X46796980Y-63427814D01*
X46796978Y-63427813D01*
X46594219Y-63361933D01*
X46594217Y-63361932D01*
X46594215Y-63361932D01*
X46383637Y-63328579D01*
X46170435Y-63328579D01*
X45959857Y-63361932D01*
X45959855Y-63361932D01*
X45959852Y-63361933D01*
X45757093Y-63427813D01*
X45757087Y-63427816D01*
X45567119Y-63524609D01*
X45394636Y-63649926D01*
X45243883Y-63800679D01*
X45118566Y-63973162D01*
X45021773Y-64163130D01*
X45021770Y-64163136D01*
X44955890Y-64365895D01*
X44955889Y-64365898D01*
X44955889Y-64365900D01*
X44922536Y-64576478D01*
X43770074Y-64576478D01*
X43770074Y-61160799D01*
X43770121Y-61160638D01*
X43770121Y-61080198D01*
X43770121Y-60890152D01*
X43735051Y-60511683D01*
X43665209Y-60138065D01*
X43657058Y-60109419D01*
X43614779Y-59960823D01*
X43561192Y-59772484D01*
X43423888Y-59418061D01*
X43254467Y-59077818D01*
X43054376Y-58754658D01*
X42825320Y-58451340D01*
X42825318Y-58451337D01*
X42569260Y-58170453D01*
X42334825Y-57956738D01*
X42288365Y-57914384D01*
X42288362Y-57914382D01*
X42288358Y-57914378D01*
X41985044Y-57685326D01*
X41985029Y-57685316D01*
X41661895Y-57485240D01*
X41661892Y-57485238D01*
X41661888Y-57485236D01*
X41321645Y-57315815D01*
X41321635Y-57315810D01*
X40967226Y-57178511D01*
X40601647Y-57074493D01*
X40601640Y-57074491D01*
X40369486Y-57031094D01*
X40228023Y-57004650D01*
X40228017Y-57004649D01*
X40228015Y-57004649D01*
X40227999Y-57004647D01*
X39849558Y-56969579D01*
X39849554Y-56969579D01*
X39664454Y-56969579D01*
X39654568Y-56969191D01*
X39509605Y-56957782D01*
X39490076Y-56954688D01*
X39353515Y-56921902D01*
X39334712Y-56915793D01*
X39204960Y-56862048D01*
X39187343Y-56853071D01*
X39067605Y-56779695D01*
X39051609Y-56768074D01*
X38941139Y-56673723D01*
X38933875Y-56667007D01*
X38927496Y-56660628D01*
X38880912Y-56614043D01*
X38880911Y-56614042D01*
X38876511Y-56609642D01*
X38876501Y-56609633D01*
X38343346Y-56076478D01*
X44922536Y-56076478D01*
X44922536Y-56289680D01*
X44954078Y-56488823D01*
X44955890Y-56500262D01*
X45010068Y-56667007D01*
X45021772Y-56703026D01*
X45118564Y-56892992D01*
X45118566Y-56892995D01*
X45243883Y-57065478D01*
X45394636Y-57216231D01*
X45394639Y-57216233D01*
X45567123Y-57341551D01*
X45757089Y-57438343D01*
X45959857Y-57504226D01*
X46170435Y-57537579D01*
X46170438Y-57537579D01*
X46383634Y-57537579D01*
X46383637Y-57537579D01*
X46594215Y-57504226D01*
X46796983Y-57438343D01*
X46986949Y-57341551D01*
X47159433Y-57216233D01*
X47310190Y-57065476D01*
X47435508Y-56892992D01*
X47532300Y-56703026D01*
X47598183Y-56500258D01*
X47631536Y-56289680D01*
X47631536Y-56076478D01*
X47598183Y-55865900D01*
X47532300Y-55663132D01*
X47435508Y-55473166D01*
X47343877Y-55347048D01*
X47310188Y-55300679D01*
X47159435Y-55149926D01*
X46986952Y-55024609D01*
X46986951Y-55024608D01*
X46986949Y-55024607D01*
X46796983Y-54927815D01*
X46796980Y-54927814D01*
X46796978Y-54927813D01*
X46594219Y-54861933D01*
X46594217Y-54861932D01*
X46594215Y-54861932D01*
X46383637Y-54828579D01*
X46170435Y-54828579D01*
X45959857Y-54861932D01*
X45959855Y-54861932D01*
X45959852Y-54861933D01*
X45757093Y-54927813D01*
X45757087Y-54927816D01*
X45567119Y-55024609D01*
X45394636Y-55149926D01*
X45243883Y-55300679D01*
X45118566Y-55473162D01*
X45021773Y-55663130D01*
X45021770Y-55663136D01*
X44955890Y-55865895D01*
X44955889Y-55865898D01*
X44955889Y-55865900D01*
X44922536Y-56076478D01*
X38343346Y-56076478D01*
X37618990Y-55352122D01*
X37618965Y-55352094D01*
X37594472Y-55327602D01*
X37594421Y-55327509D01*
X37536267Y-55269359D01*
X37478790Y-55211885D01*
X37397935Y-55147409D01*
X37304585Y-55072969D01*
X37115932Y-54954437D01*
X36915178Y-54857766D01*
X36704879Y-54784186D01*
X36487645Y-54734611D01*
X36266244Y-54709672D01*
X36266241Y-54709672D01*
X36266232Y-54709672D01*
X36189948Y-54709674D01*
X36121827Y-54689674D01*
X36115884Y-54685610D01*
X36104116Y-54677060D01*
X35929648Y-54599382D01*
X35742847Y-54559676D01*
X35551873Y-54559676D01*
X35365071Y-54599382D01*
X35190607Y-54677058D01*
X35036104Y-54789311D01*
X34908325Y-54931224D01*
X34908318Y-54931234D01*
X34812835Y-55096615D01*
X34806115Y-55117295D01*
X34766039Y-55175899D01*
X34700641Y-55203533D01*
X34650784Y-55199250D01*
X34474233Y-55147409D01*
X34474217Y-55147405D01*
X34009238Y-55046253D01*
X34009241Y-55046253D01*
X33538220Y-54978529D01*
X33365100Y-54966147D01*
X33063544Y-54944579D01*
X33063537Y-54944579D01*
X31219969Y-54944579D01*
X31219949Y-54944578D01*
X31138134Y-54944578D01*
X31129895Y-54944308D01*
X30898111Y-54929119D01*
X30881773Y-54926968D01*
X30797199Y-54910146D01*
X30658005Y-54882460D01*
X30642086Y-54878195D01*
X30426039Y-54804860D01*
X30410812Y-54798553D01*
X30206183Y-54697644D01*
X30191910Y-54689403D01*
X30002217Y-54562658D01*
X29989140Y-54552625D01*
X29906500Y-54480153D01*
X29868472Y-54420199D01*
X29863577Y-54385420D01*
X29863577Y-53264446D01*
X29863576Y-53264429D01*
X29857067Y-53203882D01*
X29857066Y-53203879D01*
X29856898Y-53203428D01*
X29856871Y-53203053D01*
X29855254Y-53196211D01*
X29856362Y-53195948D01*
X29851829Y-53132612D01*
X29885851Y-53070298D01*
X29945975Y-53036766D01*
X29953152Y-53035068D01*
X29953161Y-53035068D01*
X30090164Y-52983968D01*
X30091101Y-52983267D01*
X30207221Y-52896340D01*
X30294847Y-52779286D01*
X30294847Y-52779285D01*
X30294849Y-52779283D01*
X30345949Y-52642280D01*
X30352460Y-52581717D01*
X30352460Y-51464273D01*
X30372462Y-51396152D01*
X30395384Y-51369540D01*
X30440022Y-51330395D01*
X30453093Y-51320365D01*
X30632228Y-51200675D01*
X30646481Y-51192446D01*
X30839729Y-51097150D01*
X30854936Y-51090852D01*
X31058953Y-51021600D01*
X31074867Y-51017337D01*
X31286183Y-50975306D01*
X31302495Y-50973159D01*
X31435961Y-50964413D01*
X31522101Y-50958770D01*
X31530339Y-50958500D01*
X31605445Y-50958501D01*
X31605450Y-50958500D01*
X33027136Y-50958500D01*
X33095257Y-50978502D01*
X33141750Y-51032158D01*
X33151854Y-51102432D01*
X33134569Y-51150335D01*
X33080116Y-51239193D01*
X32981721Y-51476740D01*
X32921699Y-51726753D01*
X32901526Y-51983079D01*
X32921699Y-52239404D01*
X32981721Y-52489417D01*
X33074562Y-52713554D01*
X33080117Y-52726966D01*
X33198993Y-52920954D01*
X33214462Y-52946196D01*
X33214463Y-52946198D01*
X33381445Y-53141710D01*
X33546357Y-53282557D01*
X33576961Y-53308695D01*
X33796190Y-53443039D01*
X34033737Y-53541434D01*
X34283751Y-53601457D01*
X34540077Y-53621630D01*
X34796403Y-53601457D01*
X35046417Y-53541434D01*
X35283964Y-53443039D01*
X35503193Y-53308695D01*
X35698708Y-53141710D01*
X35714265Y-53123494D01*
X35773715Y-53084685D01*
X35844709Y-53084177D01*
X35904709Y-53122132D01*
X35905889Y-53123495D01*
X35921446Y-53141711D01*
X36086357Y-53282557D01*
X36116961Y-53308695D01*
X36336190Y-53443039D01*
X36573737Y-53541434D01*
X36823751Y-53601457D01*
X37080077Y-53621630D01*
X37336403Y-53601457D01*
X37586417Y-53541434D01*
X37823964Y-53443039D01*
X37922586Y-53382602D01*
X37991115Y-53364065D01*
X38058792Y-53385521D01*
X38089286Y-53414527D01*
X38131815Y-53471340D01*
X38248869Y-53558966D01*
X38248871Y-53558967D01*
X38248873Y-53558968D01*
X38307952Y-53581003D01*
X38385872Y-53610067D01*
X38385880Y-53610069D01*
X38446427Y-53616578D01*
X38446432Y-53616578D01*
X38446439Y-53616579D01*
X38446445Y-53616579D01*
X40793709Y-53616579D01*
X40793715Y-53616579D01*
X40793722Y-53616578D01*
X40793726Y-53616578D01*
X40854273Y-53610069D01*
X40854276Y-53610068D01*
X40854278Y-53610068D01*
X40991281Y-53558968D01*
X41108338Y-53471340D01*
X41150868Y-53414527D01*
X41195964Y-53354286D01*
X41195964Y-53354285D01*
X41195966Y-53354283D01*
X41247066Y-53217280D01*
X41248507Y-53203882D01*
X41253576Y-53156728D01*
X41253577Y-53156711D01*
X41253577Y-51727057D01*
X41273579Y-51658936D01*
X41327235Y-51612443D01*
X41397509Y-51602339D01*
X41462089Y-51631833D01*
X41464464Y-51633943D01*
X41470964Y-51639869D01*
X41470966Y-51639870D01*
X41470967Y-51639871D01*
X41653510Y-51752896D01*
X41653518Y-51752899D01*
X41853708Y-51830454D01*
X41853713Y-51830456D01*
X42064759Y-51869907D01*
X42064761Y-51869907D01*
X42279459Y-51869907D01*
X42279461Y-51869907D01*
X42490507Y-51830456D01*
X42690710Y-51752896D01*
X42873253Y-51639871D01*
X43031920Y-51495227D01*
X43161306Y-51323891D01*
X43257007Y-51131698D01*
X43315763Y-50925193D01*
X43335573Y-50711407D01*
X43315763Y-50497621D01*
X43276803Y-50360693D01*
X43257009Y-50291123D01*
X43257008Y-50291122D01*
X43257007Y-50291116D01*
X43161306Y-50098923D01*
X43031920Y-49927587D01*
X43031918Y-49927585D01*
X42873255Y-49782944D01*
X42690708Y-49669917D01*
X42690701Y-49669914D01*
X42490511Y-49592359D01*
X42490512Y-49592359D01*
X42455681Y-49585848D01*
X42279461Y-49552907D01*
X42279459Y-49552907D01*
X42138481Y-49552907D01*
X42070360Y-49532905D01*
X42049386Y-49516002D01*
X41749364Y-49215980D01*
X41717270Y-49161368D01*
X41678095Y-49023680D01*
X41663864Y-48995101D01*
X41586527Y-48839786D01*
X41586523Y-48839781D01*
X41462723Y-48675841D01*
X41310904Y-48537440D01*
X41136244Y-48429295D01*
X41136243Y-48429294D01*
X41136239Y-48429292D01*
X41018888Y-48383830D01*
X40944677Y-48355081D01*
X40894191Y-48345643D01*
X40742739Y-48317332D01*
X40537303Y-48317332D01*
X40537301Y-48317332D01*
X40515862Y-48321339D01*
X40445226Y-48314193D01*
X40389667Y-48269992D01*
X40366824Y-48202771D01*
X40367193Y-48186501D01*
X40368397Y-48172736D01*
X40371239Y-48140256D01*
X40352047Y-47920885D01*
X40295052Y-47708180D01*
X40201988Y-47508603D01*
X40089800Y-47348382D01*
X40067112Y-47281108D01*
X40084397Y-47212247D01*
X40136167Y-47163663D01*
X40205985Y-47150780D01*
X40271684Y-47177689D01*
G37*
%TD.AperFunction*%
%TD*%
D23*
X31976504Y-18693512D02*
G75*
G02*
X31977224Y-20775888I696J-1041188D01*
G01*
X17994496Y-13500000D02*
X55494496Y-13500000D01*
X55494496Y-79500000D01*
X17994496Y-79500000D01*
X17994496Y-13500000D01*
X46135992Y-52103264D02*
G75*
G02*
X46350095Y-52562712I-385892J-459436D01*
G01*
X44950077Y-68583079D02*
G75*
G02*
X46350077Y-67183077I1400023J-21D01*
G01*
X27050077Y-67383079D02*
X27050077Y-52283079D01*
X25900000Y-44928268D02*
G75*
G02*
X25299932Y-44328268I0J600068D01*
G01*
X36287028Y-20782683D02*
G75*
G02*
X36892542Y-21382658I5472J-600017D01*
G01*
X44950077Y-60083079D02*
G75*
G02*
X46350077Y-58683077I1400023J-21D01*
G01*
X46350077Y-53683079D02*
X46350095Y-52562712D01*
X38709268Y-46611441D02*
G75*
G02*
X39535598Y-46559459I440432J-407459D01*
G01*
X30350077Y-48983079D02*
X31978369Y-48984165D01*
X46135992Y-52103264D02*
X39535638Y-46559412D01*
X46350077Y-53683079D02*
G75*
G02*
X46350077Y-58683081I3J-2500001D01*
G01*
X30921404Y-21373650D02*
G75*
G02*
X31515490Y-20773533I599996J150D01*
G01*
X27050077Y-52283079D02*
G75*
G02*
X30350077Y-48983077I3300003J-1D01*
G01*
X30716824Y-45752640D02*
X30068188Y-45104004D01*
X29643924Y-44928268D02*
X25900000Y-44928268D01*
X25300000Y-24119795D02*
G75*
G02*
X25900404Y-23519800I600000J-5D01*
G01*
X27050077Y-67383079D02*
X27050077Y-70183079D01*
X50494496Y-18701499D02*
X50500000Y-74276461D01*
X25300000Y-37935576D02*
G75*
G02*
X25300000Y-29901804I8557550J4016886D01*
G01*
X38709268Y-46611441D02*
X36680998Y-48804314D01*
X29643924Y-44928268D02*
G75*
G02*
X30068183Y-45104009I-24J-600032D01*
G01*
X31977649Y-46901777D02*
X31492749Y-46901886D01*
X31492749Y-46901886D02*
G75*
G02*
X30892614Y-46302147I-149J599986D01*
G01*
X44950077Y-60783079D02*
X44950077Y-60083079D01*
X36294383Y-46910916D02*
X35972389Y-46911408D01*
X46350077Y-62183079D02*
G75*
G02*
X46350077Y-67183081I3J-2500001D01*
G01*
X33841504Y-72184408D02*
X29050077Y-72183079D01*
X25300000Y-29901804D02*
X25300000Y-24119795D01*
X35973109Y-48993796D02*
X36233460Y-48996862D01*
X44950077Y-68583079D02*
X44957272Y-69584983D01*
X31977679Y-20768983D02*
X31515490Y-20773539D01*
X35973109Y-48993796D02*
G75*
G02*
X35972389Y-46911404I-749J1041196D01*
G01*
X44957272Y-69584983D02*
G75*
G02*
X42357272Y-72184982I-2600012J13D01*
G01*
X36287028Y-20782683D02*
X35971964Y-20785531D01*
X23000000Y-74266762D02*
X22994496Y-18691800D01*
X36892452Y-24928268D02*
G75*
G02*
X36899334Y-42949639I-2894112J-9011792D01*
G01*
X35971244Y-18703143D02*
X50494496Y-18701499D01*
X30892614Y-46302147D02*
X30892560Y-46176644D01*
X36893466Y-46311964D02*
G75*
G02*
X36294383Y-46910966I-600066J1064D01*
G01*
X30716824Y-45752640D02*
G75*
G02*
X30892569Y-46176644I-424224J-424260D01*
G01*
X37836964Y-74276427D02*
X50500000Y-74276461D01*
X37836964Y-74276427D02*
G75*
G02*
X37836244Y-72194033I-704J1041197D01*
G01*
X37836244Y-72194039D02*
X42357272Y-72184983D01*
X31976504Y-18693512D02*
X22994496Y-18691800D01*
X30921766Y-22921550D02*
G75*
G02*
X30321362Y-23521666I-599966J-150D01*
G01*
X36892452Y-21382658D02*
X36892452Y-24928268D01*
X30921766Y-22921550D02*
X30921404Y-21373650D01*
X30321362Y-23521690D02*
X25900404Y-23519796D01*
X46350077Y-62183079D02*
G75*
G02*
X44950121Y-60783079I23J1399979D01*
G01*
X35971964Y-20785531D02*
G75*
G02*
X35971244Y-18703149I-694J1041191D01*
G01*
X33841504Y-72184408D02*
G75*
G02*
X33842224Y-74266792I696J-1041192D01*
G01*
X36899333Y-42949637D02*
X36893466Y-46311964D01*
X36680998Y-48804314D02*
G75*
G02*
X36233460Y-48996879I-440498J407414D01*
G01*
X25300000Y-44328268D02*
X25300000Y-37935576D01*
X29050077Y-72183079D02*
G75*
G02*
X27050121Y-70183079I23J1999979D01*
G01*
X31977649Y-46901777D02*
G75*
G02*
X31978369Y-48984163I701J-1041193D01*
G01*
X33842224Y-74266796D02*
X23000000Y-74266762D01*
M02*
