%TF.GenerationSoftware,KiCad,Pcbnew,8.0.2-1*%
%TF.CreationDate,2024-07-30T22:04:44-07:00*%
%TF.ProjectId,tamagotchi_panel_rounded,74616d61-676f-4746-9368-695f70616e65,rev?*%
%TF.SameCoordinates,Original*%
%TF.FileFunction,Glue,Top*%
%TF.FilePolarity,Positive*%
%FSLAX46Y46*%
G04 Gerber Fmt 4.6, Leading zero omitted, Abs format (unit mm)*
G04 Created by KiCad (PCBNEW 8.0.2-1) date 2024-07-30 22:04:44*
%MOMM*%
%LPD*%
G01*
G04 APERTURE LIST*
%TA.AperFunction,Profile*%
%ADD10C,0.100000*%
%TD*%
G04 APERTURE END LIST*
D10*
X31976504Y-18693512D02*
G75*
G02*
X31977224Y-20775888I696J-1041188D01*
G01*
X17994496Y-13500000D02*
X55494496Y-13500000D01*
X55494496Y-79500000D01*
X17994496Y-79500000D01*
X17994496Y-13500000D01*
X46135992Y-52103264D02*
G75*
G02*
X46350095Y-52562712I-385892J-459436D01*
G01*
X44950077Y-68583079D02*
G75*
G02*
X46350077Y-67183077I1400023J-21D01*
G01*
X27050077Y-67383079D02*
X27050077Y-52283079D01*
X25900000Y-44928268D02*
G75*
G02*
X25299932Y-44328268I0J600068D01*
G01*
X36287028Y-20782683D02*
G75*
G02*
X36892542Y-21382658I5472J-600017D01*
G01*
X44950077Y-60083079D02*
G75*
G02*
X46350077Y-58683077I1400023J-21D01*
G01*
X46350077Y-53683079D02*
X46350095Y-52562712D01*
X38709268Y-46611441D02*
G75*
G02*
X39535598Y-46559459I440432J-407459D01*
G01*
X30350077Y-48983079D02*
X31978369Y-48984165D01*
X46135992Y-52103264D02*
X39535638Y-46559412D01*
X46350077Y-53683079D02*
G75*
G02*
X46350077Y-58683081I3J-2500001D01*
G01*
X30921404Y-21373650D02*
G75*
G02*
X31515490Y-20773533I599996J150D01*
G01*
X27050077Y-52283079D02*
G75*
G02*
X30350077Y-48983077I3300003J-1D01*
G01*
X30716824Y-45752640D02*
X30068188Y-45104004D01*
X29643924Y-44928268D02*
X25900000Y-44928268D01*
X25300000Y-24119795D02*
G75*
G02*
X25900404Y-23519800I600000J-5D01*
G01*
X27050077Y-67383079D02*
X27050077Y-70183079D01*
X50494496Y-18701499D02*
X50500000Y-74276461D01*
X25300000Y-37935576D02*
G75*
G02*
X25300000Y-29901804I8557550J4016886D01*
G01*
X38709268Y-46611441D02*
X36680998Y-48804314D01*
X29643924Y-44928268D02*
G75*
G02*
X30068183Y-45104009I-24J-600032D01*
G01*
X31977649Y-46901777D02*
X31492749Y-46901886D01*
X31492749Y-46901886D02*
G75*
G02*
X30892614Y-46302147I-149J599986D01*
G01*
X44950077Y-60783079D02*
X44950077Y-60083079D01*
X36294383Y-46910916D02*
X35972389Y-46911408D01*
X46350077Y-62183079D02*
G75*
G02*
X46350077Y-67183081I3J-2500001D01*
G01*
X33841504Y-72184408D02*
X29050077Y-72183079D01*
X25300000Y-29901804D02*
X25300000Y-24119795D01*
X35973109Y-48993796D02*
X36233460Y-48996862D01*
X44950077Y-68583079D02*
X44957272Y-69584983D01*
X31977679Y-20768983D02*
X31515490Y-20773539D01*
X35973109Y-48993796D02*
G75*
G02*
X35972389Y-46911404I-749J1041196D01*
G01*
X44957272Y-69584983D02*
G75*
G02*
X42357272Y-72184982I-2600012J13D01*
G01*
X36287028Y-20782683D02*
X35971964Y-20785531D01*
X23000000Y-74266762D02*
X22994496Y-18691800D01*
X36892452Y-24928268D02*
G75*
G02*
X36899334Y-42949639I-2894112J-9011792D01*
G01*
X35971244Y-18703143D02*
X50494496Y-18701499D01*
X30892614Y-46302147D02*
X30892560Y-46176644D01*
X36893466Y-46311964D02*
G75*
G02*
X36294383Y-46910966I-600066J1064D01*
G01*
X30716824Y-45752640D02*
G75*
G02*
X30892569Y-46176644I-424224J-424260D01*
G01*
X37836964Y-74276427D02*
X50500000Y-74276461D01*
X37836964Y-74276427D02*
G75*
G02*
X37836244Y-72194033I-704J1041197D01*
G01*
X37836244Y-72194039D02*
X42357272Y-72184983D01*
X31976504Y-18693512D02*
X22994496Y-18691800D01*
X30921766Y-22921550D02*
G75*
G02*
X30321362Y-23521666I-599966J-150D01*
G01*
X36892452Y-21382658D02*
X36892452Y-24928268D01*
X30921766Y-22921550D02*
X30921404Y-21373650D01*
X30321362Y-23521690D02*
X25900404Y-23519796D01*
X46350077Y-62183079D02*
G75*
G02*
X44950121Y-60783079I23J1399979D01*
G01*
X35971964Y-20785531D02*
G75*
G02*
X35971244Y-18703149I-694J1041191D01*
G01*
X33841504Y-72184408D02*
G75*
G02*
X33842224Y-74266792I696J-1041192D01*
G01*
X36899333Y-42949637D02*
X36893466Y-46311964D01*
X36680998Y-48804314D02*
G75*
G02*
X36233460Y-48996879I-440498J407414D01*
G01*
X25300000Y-44328268D02*
X25300000Y-37935576D01*
X29050077Y-72183079D02*
G75*
G02*
X27050121Y-70183079I23J1999979D01*
G01*
X31977649Y-46901777D02*
G75*
G02*
X31978369Y-48984163I701J-1041193D01*
G01*
X33842224Y-74266796D02*
X23000000Y-74266762D01*
M02*
