%TF.GenerationSoftware,KiCad,Pcbnew,8.0.2-1*%
%TF.CreationDate,2024-07-30T22:04:44-07:00*%
%TF.ProjectId,tamagotchi_panel_rounded,74616d61-676f-4746-9368-695f70616e65,rev?*%
%TF.SameCoordinates,Original*%
%TF.FileFunction,Soldermask,Top*%
%TF.FilePolarity,Negative*%
%FSLAX46Y46*%
G04 Gerber Fmt 4.6, Leading zero omitted, Abs format (unit mm)*
G04 Created by KiCad (PCBNEW 8.0.2-1) date 2024-07-30 22:04:44*
%MOMM*%
%LPD*%
G01*
G04 APERTURE LIST*
G04 Aperture macros list*
%AMRotRect*
0 Rectangle, with rotation*
0 The origin of the aperture is its center*
0 $1 length*
0 $2 width*
0 $3 Rotation angle, in degrees counterclockwise*
0 Add horizontal line*
21,1,$1,$2,0,0,$3*%
G04 Aperture macros list end*
%ADD10C,2.200000*%
%ADD11R,2.250000X2.250000*%
%ADD12C,2.250000*%
%ADD13C,0.500000*%
%ADD14R,1.700000X1.700000*%
%ADD15C,1.300000*%
%ADD16C,1.200000*%
%ADD17C,1.500000*%
%ADD18C,2.500000*%
%ADD19RotRect,1.800000X1.800000X70.000000*%
%ADD20C,1.800000*%
%ADD21O,1.700000X1.700000*%
%TA.AperFunction,Profile*%
%ADD22C,0.100000*%
%TD*%
G04 APERTURE END LIST*
D10*
%TO.C,H1*%
X20994496Y-76500000D03*
%TD*%
D11*
%TO.C,U1*%
X39620077Y-51983079D03*
D12*
X37080077Y-51983079D03*
X34540077Y-51983079D03*
X32000077Y-51983079D03*
X32000077Y-59603079D03*
X34540077Y-59603079D03*
X37080077Y-59603079D03*
X39620077Y-59603079D03*
%TD*%
D10*
%TO.C,H1*%
X46277036Y-56183079D03*
%TD*%
%TO.C,H1*%
X20994496Y-16500000D03*
%TD*%
D13*
%TO.C,mouse-bite-2mm-slot*%
X33229151Y-47193784D03*
X33229151Y-48693784D03*
X33979151Y-47193784D03*
X33979151Y-48693784D03*
X34729151Y-47193784D03*
X34729151Y-48693784D03*
%TD*%
D14*
%TO.C,J4*%
X26800000Y-43343402D03*
%TD*%
D15*
%TO.C,SW2*%
X43704199Y-51996982D03*
D16*
X40640021Y-49425832D03*
D15*
X42172110Y-50711407D03*
D17*
X45236288Y-53282557D03*
X39107932Y-48140256D03*
%TD*%
D18*
%TO.C,SW1*%
X38968713Y-70923675D03*
X32468713Y-70923675D03*
X38968713Y-66423675D03*
X32468713Y-66423675D03*
%TD*%
D13*
%TO.C,mouse-bite-2mm-slot*%
X33228006Y-18985519D03*
X33228006Y-20485519D03*
X33978006Y-18985519D03*
X33978006Y-20485519D03*
X34728006Y-18985519D03*
X34728006Y-20485519D03*
%TD*%
D12*
%TO.C,U2*%
X39625000Y-63400000D03*
X37085000Y-63400000D03*
X34545000Y-63400000D03*
X32005000Y-63400000D03*
%TD*%
D13*
%TO.C,mouse-bite-2mm-slot*%
X35093006Y-72476415D03*
X35093006Y-73976415D03*
X35843006Y-72476415D03*
X35843006Y-73976415D03*
X36593006Y-72476415D03*
X36593006Y-73976415D03*
%TD*%
D10*
%TO.C,H1*%
X52500000Y-76500000D03*
%TD*%
D14*
%TO.C,J3*%
X28993960Y-51683079D03*
%TD*%
%TO.C,J5*%
X26800000Y-24943402D03*
%TD*%
%TO.C,J2*%
X28993960Y-70083079D03*
%TD*%
D10*
%TO.C,H2*%
X46277036Y-64683079D03*
%TD*%
%TO.C,H1*%
X52500000Y-16500000D03*
%TD*%
D19*
%TO.C,D1*%
X42142843Y-69816333D03*
D20*
X43011574Y-67429514D03*
%TD*%
D14*
%TO.C,J1*%
X28505077Y-54163079D03*
D21*
X28505077Y-56703079D03*
X28505077Y-59243079D03*
X28505077Y-61783079D03*
X28505077Y-64323079D03*
X28505077Y-66863079D03*
%TD*%
D22*
X31976504Y-18693512D02*
G75*
G02*
X31977224Y-20775888I696J-1041188D01*
G01*
X17994496Y-13500000D02*
X55494496Y-13500000D01*
X55494496Y-79500000D01*
X17994496Y-79500000D01*
X17994496Y-13500000D01*
X46135992Y-52103264D02*
G75*
G02*
X46350095Y-52562712I-385892J-459436D01*
G01*
X44950077Y-68583079D02*
G75*
G02*
X46350077Y-67183077I1400023J-21D01*
G01*
X27050077Y-67383079D02*
X27050077Y-52283079D01*
X25900000Y-44928268D02*
G75*
G02*
X25299932Y-44328268I0J600068D01*
G01*
X36287028Y-20782683D02*
G75*
G02*
X36892542Y-21382658I5472J-600017D01*
G01*
X44950077Y-60083079D02*
G75*
G02*
X46350077Y-58683077I1400023J-21D01*
G01*
X46350077Y-53683079D02*
X46350095Y-52562712D01*
X38709268Y-46611441D02*
G75*
G02*
X39535598Y-46559459I440432J-407459D01*
G01*
X30350077Y-48983079D02*
X31978369Y-48984165D01*
X46135992Y-52103264D02*
X39535638Y-46559412D01*
X46350077Y-53683079D02*
G75*
G02*
X46350077Y-58683081I3J-2500001D01*
G01*
X30921404Y-21373650D02*
G75*
G02*
X31515490Y-20773533I599996J150D01*
G01*
X27050077Y-52283079D02*
G75*
G02*
X30350077Y-48983077I3300003J-1D01*
G01*
X30716824Y-45752640D02*
X30068188Y-45104004D01*
X29643924Y-44928268D02*
X25900000Y-44928268D01*
X25300000Y-24119795D02*
G75*
G02*
X25900404Y-23519800I600000J-5D01*
G01*
X27050077Y-67383079D02*
X27050077Y-70183079D01*
X50494496Y-18701499D02*
X50500000Y-74276461D01*
X25300000Y-37935576D02*
G75*
G02*
X25300000Y-29901804I8557550J4016886D01*
G01*
X38709268Y-46611441D02*
X36680998Y-48804314D01*
X29643924Y-44928268D02*
G75*
G02*
X30068183Y-45104009I-24J-600032D01*
G01*
X31977649Y-46901777D02*
X31492749Y-46901886D01*
X31492749Y-46901886D02*
G75*
G02*
X30892614Y-46302147I-149J599986D01*
G01*
X44950077Y-60783079D02*
X44950077Y-60083079D01*
X36294383Y-46910916D02*
X35972389Y-46911408D01*
X46350077Y-62183079D02*
G75*
G02*
X46350077Y-67183081I3J-2500001D01*
G01*
X33841504Y-72184408D02*
X29050077Y-72183079D01*
X25300000Y-29901804D02*
X25300000Y-24119795D01*
X35973109Y-48993796D02*
X36233460Y-48996862D01*
X44950077Y-68583079D02*
X44957272Y-69584983D01*
X31977679Y-20768983D02*
X31515490Y-20773539D01*
X35973109Y-48993796D02*
G75*
G02*
X35972389Y-46911404I-749J1041196D01*
G01*
X44957272Y-69584983D02*
G75*
G02*
X42357272Y-72184982I-2600012J13D01*
G01*
X36287028Y-20782683D02*
X35971964Y-20785531D01*
X23000000Y-74266762D02*
X22994496Y-18691800D01*
X36892452Y-24928268D02*
G75*
G02*
X36899334Y-42949639I-2894112J-9011792D01*
G01*
X35971244Y-18703143D02*
X50494496Y-18701499D01*
X30892614Y-46302147D02*
X30892560Y-46176644D01*
X36893466Y-46311964D02*
G75*
G02*
X36294383Y-46910966I-600066J1064D01*
G01*
X30716824Y-45752640D02*
G75*
G02*
X30892569Y-46176644I-424224J-424260D01*
G01*
X37836964Y-74276427D02*
X50500000Y-74276461D01*
X37836964Y-74276427D02*
G75*
G02*
X37836244Y-72194033I-704J1041197D01*
G01*
X37836244Y-72194039D02*
X42357272Y-72184983D01*
X31976504Y-18693512D02*
X22994496Y-18691800D01*
X30921766Y-22921550D02*
G75*
G02*
X30321362Y-23521666I-599966J-150D01*
G01*
X36892452Y-21382658D02*
X36892452Y-24928268D01*
X30921766Y-22921550D02*
X30921404Y-21373650D01*
X30321362Y-23521690D02*
X25900404Y-23519796D01*
X46350077Y-62183079D02*
G75*
G02*
X44950121Y-60783079I23J1399979D01*
G01*
X35971964Y-20785531D02*
G75*
G02*
X35971244Y-18703149I-694J1041191D01*
G01*
X33841504Y-72184408D02*
G75*
G02*
X33842224Y-74266792I696J-1041192D01*
G01*
X36899333Y-42949637D02*
X36893466Y-46311964D01*
X36680998Y-48804314D02*
G75*
G02*
X36233460Y-48996879I-440498J407414D01*
G01*
X25300000Y-44328268D02*
X25300000Y-37935576D01*
X29050077Y-72183079D02*
G75*
G02*
X27050121Y-70183079I23J1999979D01*
G01*
X31977649Y-46901777D02*
G75*
G02*
X31978369Y-48984163I701J-1041193D01*
G01*
X33842224Y-74266796D02*
X23000000Y-74266762D01*
M02*
