M48
; DRILL file {KiCad 8.0.2-1} date 2024-07-30T22:04:34-0700
; FORMAT={-:-/ absolute / metric / decimal}
; #@! TF.CreationDate,2024-07-30T22:04:34-07:00
; #@! TF.GenerationSoftware,Kicad,Pcbnew,8.0.2-1
; #@! TF.FileFunction,MixedPlating,1,2
FMAT,2
METRIC
; #@! TA.AperFunction,Plated,PTH,ViaDrill
T1C0.400
; #@! TA.AperFunction,Plated,PTH,ComponentDrill
T2C0.750
; #@! TA.AperFunction,Plated,PTH,ComponentDrill
T3C0.762
; #@! TA.AperFunction,Plated,PTH,ComponentDrill
T4C0.800
; #@! TA.AperFunction,Plated,PTH,ComponentDrill
T5C0.900
; #@! TA.AperFunction,Plated,PTH,ComponentDrill
T6C1.000
; #@! TA.AperFunction,Plated,PTH,ComponentDrill
T7C1.100
; #@! TA.AperFunction,NonPlated,NPTH,ComponentDrill
T8C0.500
; #@! TA.AperFunction,NonPlated,NPTH,ComponentDrill
T9C2.200
%
G90
G05
T1
X33.978Y-22.543
X35.647Y-55.468
X37.0Y-57.432
T2
X40.64Y-49.426
T3
X32.005Y-63.4
X34.545Y-63.4
X37.085Y-63.4
X39.625Y-63.4
T4
X32.0Y-51.983
X32.0Y-59.603
X34.54Y-51.983
X34.54Y-59.603
X37.08Y-51.983
X37.08Y-59.603
X39.62Y-51.983
X39.62Y-59.603
X42.172Y-50.711
X43.704Y-51.997
T5
X42.143Y-69.816
X43.012Y-67.43
T6
X26.8Y-24.943
X26.8Y-43.343
X28.505Y-54.163
X28.505Y-56.703
X28.505Y-59.243
X28.505Y-61.783
X28.505Y-64.323
X28.505Y-66.863
X28.994Y-51.683
X28.994Y-70.083
X39.108Y-48.14
X45.236Y-53.283
T7
X32.469Y-66.424
X32.469Y-70.924
X38.969Y-66.424
X38.969Y-70.924
T8
X33.228Y-18.986
X33.228Y-20.486
X33.229Y-47.194
X33.229Y-48.694
X33.978Y-18.986
X33.978Y-20.486
X33.979Y-47.194
X33.979Y-48.694
X34.728Y-18.986
X34.728Y-20.486
X34.729Y-47.194
X34.729Y-48.694
X35.093Y-72.476
X35.093Y-73.976
X35.843Y-72.476
X35.843Y-73.976
X36.593Y-72.476
X36.593Y-73.976
T9
X20.994Y-16.5
X20.994Y-76.5
X46.277Y-56.183
X46.277Y-64.683
X52.5Y-16.5
X52.5Y-76.5
M30
